<?xml version="1.0" encoding="UTF-8" standalone="no"?> <svg xmlns="http://www.w3.org/2000/svg" viewBox="0 0 64 64"><g id="Layer_19" data-name="Layer 19"><path d="M4,36.35a2.49,2.49,0,0,1,1.88.87,4.46,4.46,0,0,0,6.41,0,2.49,2.49,0,0,1,3.77,0,4.46,4.46,0,0,0,6.41,0,2.49,2.49,0,0,1,3.77,0,4.43,4.43,0,0,0,6.41,0,2.48,2.48,0,0,1,3.77,0,4.46,4.46,0,0,0,6.41,0,2.49,2.49,0,0,1,3.77,0,4.46,4.46,0,0,0,6.41,0,2.5,2.5,0,0,1,3.78,0A4.43,4.43,0,0,0,60,38.59a1,1,0,0,0,0-2,2.53,2.53,0,0,1-1.89-.87,4.47,4.47,0,0,0-6.42,0,2.49,2.49,0,0,1-3.77,0,4.47,4.47,0,0,0-6.41,0,2.48,2.48,0,0,1-3.77,0,4.47,4.47,0,0,0-6.41,0,2.49,2.49,0,0,1-3.77,0,4.47,4.47,0,0,0-6.41,0,2.49,2.49,0,0,1-3.77,0,4.47,4.47,0,0,0-6.41,0,2.48,2.48,0,0,1-3.76,0A4.45,4.45,0,0,0,4,34.35,1,1,0,0,0,4,36.35Z"/><path d="M60,44.27a2.53,2.53,0,0,1-1.89-.87,4.47,4.47,0,0,0-6.42,0,2.48,2.48,0,0,1-3.77,0,4.47,4.47,0,0,0-6.41,0,2.48,2.48,0,0,1-3.77,0,4.43,4.43,0,0,0-6.41,0,2.48,2.48,0,0,1-3.77,0,4.46,4.46,0,0,0-6.41,0,2.49,2.49,0,0,1-3.77,0,4.47,4.47,0,0,0-6.41,0,2.48,2.48,0,0,1-3.76,0A4.45,4.45,0,0,0,4,42a1,1,0,0,0,0,2,2.49,2.49,0,0,1,1.88.87,4.46,4.46,0,0,0,6.41,0,2.49,2.49,0,0,1,3.77,0,4.46,4.46,0,0,0,6.41,0,2.49,2.49,0,0,1,3.77,0,4.46,4.46,0,0,0,6.41,0,2.49,2.49,0,0,1,3.77,0,4.46,4.46,0,0,0,6.41,0,2.49,2.49,0,0,1,3.77,0,4.46,4.46,0,0,0,6.41,0,2.5,2.5,0,0,1,3.78,0A4.43,4.43,0,0,0,60,46.27,1,1,0,0,0,60,44.27Z"/><path d="M60,52a2.53,2.53,0,0,1-1.89-.87,4.47,4.47,0,0,0-6.42,0,2.48,2.48,0,0,1-3.77,0,4.47,4.47,0,0,0-6.41,0,2.48,2.48,0,0,1-3.77,0,4.43,4.43,0,0,0-6.41,0,2.48,2.48,0,0,1-3.77,0,4.46,4.46,0,0,0-6.41,0,2.49,2.49,0,0,1-3.77,0,4.46,4.46,0,0,0-6.41,0,2.48,2.48,0,0,1-3.76,0A4.45,4.45,0,0,0,4,49.71a1,1,0,0,0,0,2,2.5,2.5,0,0,1,1.88.87,4.46,4.46,0,0,0,6.41,0,2.49,2.49,0,0,1,3.77,0,4.46,4.46,0,0,0,6.41,0,2.49,2.49,0,0,1,3.77,0,4.46,4.46,0,0,0,6.41,0,2.49,2.49,0,0,1,3.77,0,4.46,4.46,0,0,0,6.41,0,2.49,2.49,0,0,1,3.77,0,4.46,4.46,0,0,0,6.41,0,2.5,2.5,0,0,1,3.78,0A4.43,4.43,0,0,0,60,54,1,1,0,0,0,60,52Z"/><path d="M60,59a2.53,2.53,0,0,1-1.89-.87,4.47,4.47,0,0,0-6.42,0,2.49,2.49,0,0,1-3.77,0,4.47,4.47,0,0,0-6.41,0,2.49,2.49,0,0,1-3.77,0,4.43,4.43,0,0,0-6.41,0,2.48,2.48,0,0,1-3.77,0,4.46,4.46,0,0,0-6.41,0,2.49,2.49,0,0,1-3.77,0,4.46,4.46,0,0,0-6.41,0,2.48,2.48,0,0,1-3.76,0A4.45,4.45,0,0,0,4,56.76a1,1,0,0,0,0,2,2.5,2.5,0,0,1,1.88.87,4.46,4.46,0,0,0,6.41,0,2.48,2.48,0,0,1,3.77,0,4.46,4.46,0,0,0,6.41,0,2.49,2.49,0,0,1,3.77,0,4.47,4.47,0,0,0,6.41,0,2.49,2.49,0,0,1,3.77,0,4.46,4.46,0,0,0,6.41,0,2.49,2.49,0,0,1,3.77,0,4.46,4.46,0,0,0,6.41,0,2.5,2.5,0,0,1,3.78,0A4.43,4.43,0,0,0,60,61,1,1,0,0,0,60,59Z"/><path d="M5.6,15.31H9.79a6.17,6.17,0,0,0,1.09,2.62L9,19.79a1,1,0,0,0,1.41,1.42l1.86-1.86a6.16,6.16,0,0,0,2.62,1.08v4.2a1,1,0,0,0,2,0v-4.2a6.23,6.23,0,0,0,4-9.73L22.8,8.83a1,1,0,0,0-1.41-1.41L19.53,9.28A6,6,0,0,0,16.91,8.2V4a1,1,0,0,0-2,0V8.2a6,6,0,0,0-2.62,1.08L10.43,7.42A1,1,0,0,0,9,7.42,1,1,0,0,0,9,8.83l1.86,1.87a6.18,6.18,0,0,0-1.09,2.61H5.6A1,1,0,0,0,5.6,15.31Zm10.31,3.21a4.21,4.21,0,0,1,0-8.41A4.21,4.21,0,0,1,15.91,18.52Z"/><path d="M19.26,23.4A7.44,7.44,0,0,0,26,30.82c.22,0,12.79,0,13,0,8.41-1,8.93-12.85.73-14.71-1.68-7.83-12.9-7.83-14.58,0A7.48,7.48,0,0,0,19.26,23.4ZM26.16,18a5.59,5.59,0,0,1,3,.56,1,1,0,0,0,1.34-.43c.64-1.69-2.11-2-3.24-2.12a5.46,5.46,0,0,1,10.38,0c-1.13.17-3.89.43-3.25,2.12a1,1,0,0,0,1.35.43A5.41,5.41,0,0,1,39.06,18c6.22,1,6.08,10.05-.21,10.82H26.11C19.67,28,19.74,18.72,26.16,18Z"/></g></svg>